{"accessors" : [{"bufferView" : 0, "byteOffset" : 0, "componentType" : 5123, "count" : 40914, "type" : "SCALAR", "max" : [28393], "min" : [0]}, {"bufferView" : 1, "byteOffset" : 0, "componentType" : 5126, "count" : 28394, "type" : "VEC3", "max" : [0.311489999294281, 1.9888620376586914, 0.1566389948129654], "min" : [-0.311489999294281, -0.00342700001783669, -0.1566389948129654], "name" : "POSITION"}, {"bufferView" : 1, "byteOffset" : 12, "componentType" : 5126, "count" : 28394, "type" : "VEC2", "max" : [0.9933590292930603, 0.9925730228424072], "min" : [0.003367000026628375, 0.0038759708404541016], "name" : "TEXCOORD_0"}, {"bufferView" : 1, "byteOffset" : 20, "componentType" : 5126, "count" : 28394, "type" : "VEC3", "max" : [1.0000044107437134, 0.9998866319656372, 0.9999702572822571], "min" : [-0.9999821186065674, -0.9997240304946899, -1.0000044107437134], "name" : "NORMAL"}], "asset" : {"generator" : "Aspose.3D 24.2.0", "version" : "2.0"}, "buffers" : [{"uri" : "buffer.bin", "byteLength" : 990444}], "bufferViews" : [{"buffer" : 0, "byteOffset" : 0, "byteLength" : 81828, "target" : 34963}, {"buffer" : 0, "byteOffset" : 81832, "byteLength" : 908608, "byteStride" : 32, "target" : 34962}], "meshes" : [{"primitives" : [{"attributes" : {"POSITION" : 1, "TEXCOORD_0" : 2, "NORMAL" : 3}, "indices" : 0, "mode" : 4}], "name" : ""}], "nodes" : [{"mesh" : 0, "name" : "skeleton1"}], "scene" : 0, "scenes" : [{"nodes" : [0]}]}