{"accessors" : [{"bufferView" : 0, "byteOffset" : 0, "componentType" : 5123, "count" : 15810, "type" : "SCALAR", "max" : [15136], "min" : [0]}, {"bufferView" : 1, "byteOffset" : 0, "componentType" : 5126, "count" : 15137, "type" : "VEC3", "max" : [0.3101600110530853, 1.9840149879455566, 0.15595699846744537], "min" : [-0.3101600110530853, -0.007259000092744827, -0.15595699846744537], "name" : "POSITION"}, {"bufferView" : 1, "byteOffset" : 12, "componentType" : 5126, "count" : 15137, "type" : "VEC2", "max" : [0.9898899793624878, 1.9914699792861938], "min" : [0.008814999833703041, 1.0079389810562134], "name" : "TEXCOORD_0"}, {"bufferView" : 1, "byteOffset" : 20, "componentType" : 5126, "count" : 15137, "type" : "VEC3", "max" : [0.9982072114944458, 0.9938554763793945, 0.9999074339866638], "min" : [-0.9982073903083801, -0.9974255561828613, -0.9999954104423523], "name" : "NORMAL"}], "asset" : {"generator" : "Aspose.3D 24.1.0", "version" : "2.0"}, "buffers" : [{"uri" : "data:application/octet-stream;base64,", "byteLength" : 537548}], "bufferViews" : [{"buffer" : 0, "byteOffset" : 0, "byteLength" : 31620, "target" : 34963}, {"buffer" : 0, "byteOffset" : 31624, "byteLength" : 505920, "byteStride" : 32, "target" : 34962}], "meshes" : [{"primitives" : [{"attributes" : {"POSITION" : 1, "TEXCOORD_0" : 2, "NORMAL" : 3}, "indices" : 0, "mode" : 4}]}], "nodes" : [{"mesh" : 0, "name" : "skeleton"}], "scene" : 0, "scenes" : [{"nodes" : [0]}]}